<?xml version="1.0" encoding="UTF-8"?>
<!-- Generated by Pixelmator Pro 3.5.3 -->
<svg width="256" height="256" viewBox="0 0 256 256" xmlns="http://www.w3.org/2000/svg">
    <path id="Path" fill="#027aff" fill-rule="evenodd" stroke="none" d="M 239.460342 95.993179 L 225.107162 95.993179 C 216.319702 95.993179 208.609741 88.552017 208.004562 79.992661 C 208.004562 34.327332 171.188904 -0.00769 125.205627 -0.00769 L 83.249748 -0.009216 C 37.297188 -0.009216 0.032256 36.999969 -0.000768 82.66069 L -0.000768 173.366959 C -0.000768 219.032288 37.297188 256.008453 83.249748 256.008453 L 172.847015 256.008453 C 218.828766 256.008453 255.997696 219.030746 255.997696 173.366959 L 255.999237 114.776184 C 255.999237 105.652328 248.638718 96.001633 239.450348 96.001633 L 239.459564 95.992416 Z M 79.997261 63.995193 L 128.000381 63.995193 C 136.797058 63.995193 144.000916 71.199814 144.000916 79.995728 C 144.000916 88.792404 136.796295 95.997787 128.000381 95.997787 L 79.997261 95.993179 C 71.200584 95.993179 63.996735 88.788574 63.996735 79.992661 C 63.996735 71.19136 71.201347 63.990585 79.997261 63.990585 L 79.997261 63.995193 Z M 176.004272 191.990967 L 79.997261 191.990967 C 71.200584 191.990967 63.996735 184.790192 63.996735 175.990448 C 63.996735 167.193756 71.201347 159.988373 79.997261 159.988373 L 176.004272 159.997589 C 184.800949 159.997589 192.004807 167.198364 192.004807 175.998138 C 192.004807 184.7948 184.800186 192.000183 176.004272 192.000183 L 176.004272 191.990967 Z"/>
</svg>
