<?xml version="1.0" encoding="UTF-8" standalone="no"?>
<!DOCTYPE svg PUBLIC "-//W3C//DTD SVG 1.1//EN" "http://www.w3.org/Graphics/SVG/1.1/DTD/svg11.dtd">
<svg width="100%" height="100%" viewBox="0 0 1425 1459" version="1.1" xmlns="http://www.w3.org/2000/svg" xmlns:xlink="http://www.w3.org/1999/xlink" xml:space="preserve" xmlns:serif="http://www.serif.com/" style="fill-rule:evenodd;clip-rule:evenodd;stroke-linejoin:round;stroke-miterlimit:2;">
    <g transform="matrix(4.16667,0,0,4.16667,0,0)">
        <g transform="matrix(1,0,0,1,-0.206349,37.8966)">
            <path d="M98.556,101.837L98.556,81.121L240.871,81.121L240.871,101.837C240.815,140.129 208.804,170.917 169.714,170.983L169.714,157.777C201.802,157.777 227.589,132.464 227.654,101.837L227.654,94.32L111.764,94.32L111.764,101.837C111.824,132.464 137.626,157.777 169.714,157.777L169.714,170.983C130.623,170.917 98.596,140.129 98.556,101.837Z" style="fill:rgb(130,189,69);fill-rule:nonzero;"/>
        </g>
        <g transform="matrix(1,0,0,1,-0.206349,37.8966)">
            <rect x="157.027" y="124.752" width="26.99" height="140.797" style="fill:rgb(130,189,69);fill-rule:nonzero;"/>
        </g>
        <g transform="matrix(1,0,0,1,-0.206349,37.8966)">
            <path d="M215.746,45.379C215.746,20.645 194.859,0.592 169.103,0.592C143.355,0.592 122.469,20.645 122.469,45.379C122.469,66.917 122.469,57.267 122.469,61.557L215.746,61.557L215.746,45.379Z" style="fill:rgb(129,187,68);fill-rule:nonzero;"/>
        </g>
        <g transform="matrix(1,0,0,1,-0.206349,37.8966)">
            <path d="M122.464,99.238C122.464,123.969 143.345,144.019 169.103,144.019C194.854,144.019 215.74,123.969 215.74,99.238L215.74,66.875L122.464,66.875L122.464,99.238Z" style="fill:rgb(129,187,68);fill-rule:nonzero;"/>
        </g>
        <g transform="matrix(1,0,0,1,-0.206349,37.8966)">
            <path d="M276.541,235.957C244.276,268.221 188.473,264.73 188.473,264.73C188.473,264.73 184.992,208.932 217.257,176.672C249.525,144.408 305.334,147.874 305.334,147.874C305.334,147.874 308.805,203.687 276.541,235.957Z" style="fill:rgb(130,189,69);fill-rule:nonzero;"/>
        </g>
        <g transform="matrix(1,0,0,1,-0.206349,37.8966)">
            <path d="M64.018,235.957C96.277,268.221 152.086,264.73 152.086,264.73C152.086,264.73 155.562,208.932 123.303,176.672C91.033,144.408 35.225,147.874 35.225,147.874C35.225,147.874 31.754,203.687 64.018,235.957Z" style="fill:rgb(130,189,69);fill-rule:nonzero;"/>
        </g>
    </g>
</svg>
