<?xml version="1.0" encoding="UTF-8" standalone="no"?>
<!DOCTYPE svg PUBLIC "-//W3C//DTD SVG 1.1//EN" "http://www.w3.org/Graphics/SVG/1.1/DTD/svg11.dtd">
<svg width="100%" height="100%" viewBox="0 0 113 120" version="1.1" xmlns="http://www.w3.org/2000/svg" xmlns:xlink="http://www.w3.org/1999/xlink" xml:space="preserve" xmlns:serif="http://www.serif.com/" style="fill-rule:evenodd;clip-rule:evenodd;stroke-linejoin:round;stroke-miterlimit:2;">
    <g>
        <path d="M24.78,55.66L88.14,55.66L88.14,36.46L67.96,36.46C65.85,36.46 62.89,35.31 61.5,33.92C60.11,32.53 59.25,30.01 59.25,27.89L59.25,7.46L7.96,7.46C7.78,7.46 7.65,7.55 7.55,7.64C7.42,7.73 7.37,7.86 7.37,8.04L7.37,112C7.37,112.13 7.46,112.31 7.55,112.4C7.64,112.53 7.82,112.58 7.96,112.58L87.56,112.58C87.74,112.58 87.73,112.49 87.82,112.4C87.95,112.31 88.15,112.13 88.15,112L88.15,101.1L24.78,101.1C20.73,101.1 17.4,97.78 17.4,93.72L17.4,63.04C17.4,58.98 20.72,55.66 24.78,55.66ZM47.88,79.9L54.46,81.88C54.02,83.72 53.32,85.26 52.37,86.5C51.42,87.74 50.25,88.67 48.83,89.3C47.42,89.93 45.63,90.24 43.46,90.24C40.82,90.24 38.66,89.86 36.98,89.09C35.31,88.32 33.87,86.97 32.65,85.04C31.44,83.11 30.83,80.64 30.83,77.63C30.83,73.62 31.9,70.53 34.03,68.38C36.17,66.23 39.19,65.15 43.1,65.15C46.16,65.15 48.56,65.77 50.32,67C52.07,68.24 53.37,70.14 54.22,72.7L47.61,74.16C47.38,73.43 47.14,72.89 46.88,72.55C46.46,71.98 45.94,71.54 45.34,71.23C44.73,70.92 44.05,70.77 43.3,70.77C41.59,70.77 40.29,71.45 39.38,72.82C38.7,73.83 38.35,75.42 38.35,77.59C38.35,80.28 38.76,82.12 39.58,83.12C40.4,84.11 41.55,84.61 43.03,84.61C44.47,84.61 45.55,84.21 46.28,83.4C47.02,82.6 47.55,81.43 47.88,79.9ZM57.7,75.05L64.05,75.05L64.05,68.68L69.41,68.68L69.41,75.05L75.78,75.05L75.78,80.41L69.4,80.41L69.4,86.75L64.04,86.75L64.04,80.41L57.7,80.41L57.7,75.05ZM80.09,75.05L86.43,75.05L86.43,68.68L91.79,68.68L91.79,75.05L98.16,75.05L98.16,80.41L91.79,80.41L91.79,86.75L86.43,86.75L86.43,80.41L80.09,80.41L80.09,75.05ZM95.5,55.66L105.2,55.66C109.26,55.66 112.58,58.99 112.58,63.04L112.58,93.72C112.58,97.77 109.25,101.1 105.2,101.1L95.5,101.1L95.5,114.33C95.5,115.9 94.87,117.3 93.84,118.33C92.81,119.36 91.41,119.99 89.84,119.99L5.68,119.99C4.11,119.99 2.71,119.36 1.68,118.33C0.65,117.3 0.02,115.9 0.02,114.33L0.02,5.71C0.02,4.14 0.65,2.74 1.68,1.71C2.71,0.68 4.15,0.05 5.68,0.05L63.02,0.05C63.15,0 63.28,0 63.42,0C64.05,0 64.68,0.27 65.13,0.67L65.22,0.67C65.31,0.72 65.35,0.76 65.44,0.85L94.73,30.5C95.22,30.99 95.58,31.67 95.58,32.43C95.58,32.66 95.54,32.84 95.49,33.06L95.5,55.66ZM65.94,27.31L65.94,8.73L86.86,29.92L68.55,29.92C67.83,29.92 67.2,29.61 66.7,29.16C66.25,28.71 65.94,28.03 65.94,27.31Z" style="fill:rgb(0,86,255);"/>
    </g>
</svg>
