<?xml version="1.0" encoding="UTF-8"?>
<!-- Generated by Pixelmator Pro 3.3.4 -->
<svg width="122" height="112" viewBox="0 0 122 112" xmlns="http://www.w3.org/2000/svg">
    <g id="Group">
        <path id="Path" fill="#0054ff" fill-rule="evenodd" stroke="none" d="M 8.872 8.337997 L 8.872 8.337997 C -2.956 20.163002 -2.958 39.508003 8.87 51.333 L 53.432999 95.899002 C 58.306 96.173004 60.950001 94.130005 60.487999 88.844002 L 16.287001 44.640999 C 8.342 36.695999 8.342 23.700005 16.287001 15.753998 L 16.287001 15.753998 C 24.23 7.812004 37.23 7.808998 45.175999 15.751999 C 66.445999 37.022003 87.718002 58.295002 108.983002 79.562004 C 114.017998 84.594002 114.301003 93.252998 109.262001 98.292 L 109.262001 98.292 C 104.226997 103.328003 95.606003 103.013 90.569 97.977005 C 74.424004 81.833 58.402 65.811005 42.256001 49.666 C 40.021 47.431 39.907001 43.660004 42.143002 41.420998 L 42.143002 41.420998 C 44.376999 39.184998 48.152 39.301003 50.388 41.533997 L 79.092003 70.238998 C 84.292999 70.650002 86.526001 68.101006 86.274002 63.058002 L 57.569 34.352997 C 51.381001 28.165001 41.261002 28.165001 35.077 34.350998 L 35.077 34.350998 C 28.886999 40.539001 28.893 50.666 35.075001 56.847 L 54.737 76.511002 L 64.005997 85.780998 L 83.207001 104.980003 C 92.183998 113.958 107.436996 114.520004 116.414001 105.540001 C 125.396004 96.558998 124.835999 81.310005 115.855003 72.330002 L 87.387001 43.861 L 87.387001 43.862999 L 51.862 8.337997 C 40.039001 -3.488998 20.693001 -3.485001 8.872 8.337997 L 8.872 8.337997 Z"/>
    </g>
</svg>
