<?xml version="1.0" encoding="UTF-8" standalone="no"?>
<!DOCTYPE svg PUBLIC "-//W3C//DTD SVG 1.1//EN" "http://www.w3.org/Graphics/SVG/1.1/DTD/svg11.dtd">
<svg width="100%" height="100%" viewBox="0 0 123 123" version="1.1" xmlns="http://www.w3.org/2000/svg" xmlns:xlink="http://www.w3.org/1999/xlink" xml:space="preserve" xmlns:serif="http://www.serif.com/" style="fill-rule:evenodd;clip-rule:evenodd;stroke-linejoin:round;stroke-miterlimit:2;">
    <path d="M28.89,20.82L93.89,20.82C98.49,20.836 102.269,24.62 102.28,29.22L102.28,94C102.264,96.216 101.372,98.338 99.8,99.9C98.234,101.477 96.102,102.367 93.88,102.37L28.88,102.37C24.278,102.354 20.496,98.572 20.48,93.97L20.48,29.22C20.498,26.991 21.405,24.858 23,23.3C24.566,21.724 26.698,20.834 28.92,20.83L28.89,20.82ZM45.47,37.51L77.29,37.51C81.679,37.51 85.29,41.121 85.29,45.51L85.29,77.71C85.29,82.099 81.679,85.71 77.29,85.71L45.47,85.71C41.081,85.71 37.47,82.099 37.47,77.71L37.47,45.49C37.47,41.101 41.081,37.49 45.47,37.49L45.47,37.51ZM91.88,89.16C91.88,89.163 91.88,89.167 91.88,89.17C91.88,90.783 90.553,92.11 88.94,92.11C87.327,92.11 86,90.783 86,89.17C86,87.557 87.327,86.23 88.94,86.23C90.549,86.23 91.875,87.551 91.88,89.16ZM36.75,34C36.75,34.003 36.75,34.007 36.75,34.01C36.75,35.623 35.423,36.95 33.81,36.95C32.197,36.95 30.87,35.623 30.87,34.01C30.87,32.397 32.197,31.07 33.81,31.07C35.419,31.07 36.745,32.391 36.75,34ZM88.94,31.1C90.553,31.1 91.88,32.427 91.88,34.04C91.88,35.653 90.553,36.98 88.94,36.98C87.327,36.98 86,35.653 86,34.04C86,34.027 86,34.013 86,34C86.005,32.395 87.325,31.075 88.93,31.07L88.94,31.1ZM33.81,86.23C33.813,86.23 33.817,86.23 33.82,86.23C35.433,86.23 36.76,87.557 36.76,89.17C36.76,90.783 35.433,92.11 33.82,92.11C32.207,92.11 30.88,90.783 30.88,89.17C30.88,89.167 30.88,89.163 30.88,89.16C30.885,87.555 32.205,86.235 33.81,86.23ZM34.51,108.99L34.51,122.85L29.34,122.85L29.34,109L34.51,108.99ZM46.45,108.99L46.45,122.85L41.28,122.85L41.28,109L46.45,108.99ZM58.38,108.99L58.38,122.85L53.21,122.85L53.21,109L58.38,108.99ZM70.32,108.99L70.32,122.85L65.15,122.85L65.15,109L70.32,108.99ZM82.25,108.99L82.25,122.85L77.08,122.85L77.08,109L82.25,108.99ZM94.19,108.99L94.19,122.85L89,122.85L89,109L94.19,108.99ZM34.51,0L34.51,13.86L29.34,13.86L29.34,0L34.51,0ZM46.45,0L46.45,13.86L41.28,13.86L41.28,0L46.45,0ZM58.38,0L58.38,13.86L53.21,13.86L53.21,0L58.38,0ZM70.32,0L70.32,13.86L65.15,13.86L65.15,0L70.32,0ZM82.25,0L82.25,13.86L77.08,13.86L77.08,0L82.25,0ZM94.19,0L94.19,13.86L89,13.86L89,0L94.19,0ZM109,88.81L122.86,88.81L122.86,94L109,94L109,88.81ZM109,76.87L122.86,76.87L122.86,82L109,82L109,76.87ZM109,64.94L122.86,64.94L122.86,70.11L109,70.11L109,64.94ZM109,53L122.86,53L122.86,58.17L109,58.17L109,53ZM109,41.07L122.86,41.07L122.86,46.24L109,46.24L109,41.07ZM109,29.13L122.86,29.13L122.86,34.3L109,34.3L109,29.13ZM0,88.81L13.86,88.81L13.86,94L0,94L0,88.81ZM0,76.87L13.86,76.87L13.86,82L0,82L0,76.87ZM0,64.94L13.86,64.94L13.86,70.11L0,70.11L0,64.94ZM0,53L13.86,53L13.86,58.17L0,58.17L0,53ZM0,41.07L13.86,41.07L13.86,46.24L0,46.24L0,41.07ZM0,29.13L13.86,29.13L13.86,34.3L0,34.3L0,29.13ZM93.87,24.85L28.87,24.85C27.713,24.85 26.602,25.306 25.78,26.12C24.962,26.939 24.504,28.052 24.51,29.21L24.51,94C24.515,96.397 26.483,98.369 28.88,98.38L93.88,98.38C95.054,98.382 96.18,97.91 97,97.07C97.802,96.25 98.247,95.146 98.24,94L98.24,29.22C98.229,26.827 96.263,24.861 93.87,24.85Z" style="fill:rgb(0,86,255);fill-rule:nonzero;"/>
</svg>
