<?xml version="1.0" encoding="UTF-8" standalone="no"?>
<!DOCTYPE svg PUBLIC "-//W3C//DTD SVG 1.1//EN" "http://www.w3.org/Graphics/SVG/1.1/DTD/svg11.dtd">
<svg width="100%" height="100%" viewBox="0 0 123 123" version="1.1" xmlns="http://www.w3.org/2000/svg" xmlns:xlink="http://www.w3.org/1999/xlink" xml:space="preserve" xmlns:serif="http://www.serif.com/" style="fill-rule:evenodd;clip-rule:evenodd;stroke-linejoin:round;stroke-miterlimit:2;">
    <g>
        <path d="M44.541,97.197L44.541,86.404C44.541,84.759 45.874,83.427 47.519,83.427L48.957,83.427L48.957,65.344L47.256,65.344C45.611,65.344 44.277,64.01 44.277,62.365L44.277,50.885C44.277,49.24 45.611,47.907 47.256,47.907L68.431,47.907C70.449,47.907 71.969,48.762 72.996,50.465C73.731,51.686 74.099,53.314 74.099,55.345L74.099,83.427L75.625,83.427C77.27,83.427 78.604,84.759 78.604,86.404L78.604,97.197C78.604,98.842 77.27,100.176 75.625,100.176L47.519,100.176C45.874,100.176 44.541,98.842 44.541,97.197ZM61.44,5.956C57.599,5.956 53.875,6.317 50.271,7.039C46.661,7.761 43.181,8.838 39.832,10.268L39.834,10.272C36.422,11.739 33.249,13.453 30.319,15.419C27.381,17.39 24.658,19.629 22.154,22.143L22.142,22.154C19.629,24.658 17.39,27.381 15.418,30.319C13.452,33.249 11.738,36.423 10.271,39.834C10.25,39.882 10.229,39.929 10.206,39.976C8.806,43.28 7.75,46.713 7.038,50.271C6.317,53.875 5.956,57.599 5.956,61.439C5.956,65.281 6.317,69.003 7.038,72.609C7.761,76.218 8.837,79.699 10.267,83.047L10.271,83.047C11.738,86.457 13.453,89.631 15.418,92.561C17.389,95.499 19.628,98.223 22.142,100.727L22.153,100.739L22.153,100.737C24.657,103.251 27.38,105.491 30.318,107.462C33.248,109.429 36.422,111.142 39.833,112.608C39.881,112.629 39.928,112.651 39.974,112.674C43.279,114.072 46.711,115.129 50.27,115.842C53.874,116.563 57.598,116.924 61.439,116.924C65.28,116.924 69.003,116.563 72.608,115.842C76.217,115.119 79.698,114.043 83.046,112.613L83.044,112.607C86.456,111.14 89.63,109.427 92.56,107.461C95.498,105.49 98.22,103.25 100.724,100.736L100.737,100.726L100.736,100.726C103.25,98.222 105.489,95.497 107.46,92.56C109.426,89.63 111.141,86.456 112.607,83.046C112.628,82.997 112.65,82.95 112.672,82.903C114.071,79.598 115.128,76.167 115.84,72.608C116.562,69.003 116.923,65.28 116.923,61.438C116.923,57.598 116.562,53.874 115.84,50.27C115.117,46.66 114.041,43.18 112.611,39.832L112.607,39.833C111.14,36.421 109.425,33.248 107.46,30.318C105.489,27.38 103.25,24.657 100.736,22.153L100.725,22.141L100.724,22.141C98.22,19.627 95.497,17.389 92.56,15.417C89.63,13.451 86.456,11.736 83.044,10.27C82.996,10.249 82.949,10.227 82.903,10.205C79.598,8.806 76.166,7.749 72.607,7.037C69.005,6.317 65.281,5.956 61.44,5.956ZM49.108,1.199C53.1,0.4 57.212,0 61.44,0C65.668,0 69.78,0.4 73.772,1.199C77.699,1.985 81.52,3.166 85.233,4.74C85.288,4.76 85.341,4.782 85.396,4.804C89.096,6.396 92.587,8.287 95.865,10.487C99.132,12.679 102.156,15.165 104.931,17.949C107.715,20.724 110.201,23.749 112.393,27.016C114.592,30.292 116.484,33.784 118.076,37.484L118.071,37.486L118.076,37.496C119.682,41.256 120.885,45.127 121.681,49.108C122.48,53.1 122.879,57.212 122.879,61.44C122.879,65.669 122.48,69.782 121.681,73.772C120.895,77.7 119.714,81.52 118.14,85.233C118.12,85.288 118.099,85.342 118.076,85.397C116.484,89.096 114.593,92.588 112.393,95.866C110.201,99.132 107.715,102.157 104.931,104.932C102.156,107.715 99.131,110.202 95.865,112.393C92.588,114.592 89.096,116.485 85.396,118.077L85.394,118.073L85.383,118.077C81.623,119.682 77.752,120.886 73.772,121.682C69.78,122.481 65.668,122.881 61.44,122.881C57.212,122.881 53.1,122.481 49.108,121.682C45.181,120.895 41.359,119.715 37.647,118.141C37.592,118.121 37.538,118.1 37.484,118.077C33.783,116.485 30.292,114.593 27.015,112.393C23.748,110.202 20.724,107.715 17.949,104.932C15.165,102.157 12.679,99.131 10.487,95.866C8.288,92.589 6.396,89.096 4.804,85.397L4.808,85.395L4.804,85.385C3.197,81.625 1.995,77.752 1.199,73.772C0.4,69.781 0,65.668 0,61.439C0,57.211 0.4,53.099 1.199,49.107C1.985,45.18 3.165,41.359 4.74,37.647C4.76,37.592 4.781,37.538 4.804,37.483C6.396,33.783 8.287,30.291 10.487,27.015C12.679,23.748 15.165,20.723 17.949,17.948C20.724,15.164 23.748,12.678 27.015,10.486C30.292,8.287 33.783,6.395 37.484,4.803L37.486,4.807L37.496,4.803C41.256,3.197 45.128,1.995 49.108,1.199ZM50.497,89.328L50.497,94.219L72.646,94.219L72.646,89.328C72.155,89.248 71.673,89.076 71.202,88.814C70.704,88.541 70.235,88.179 69.79,87.736C69.351,87.297 68.989,86.82 68.709,86.306C68.334,85.62 68.143,84.921 68.143,84.212L68.143,55.346C68.143,54.687 68.103,54.193 68.023,53.864L50.234,53.864L50.234,59.407C50.833,59.466 51.415,59.658 51.977,59.981L51.972,59.99L51.977,59.993C52.4,60.237 52.809,60.557 53.201,60.953C53.266,61.013 53.331,61.076 53.392,61.143C53.818,61.608 54.154,62.071 54.393,62.532C54.738,63.194 54.914,63.87 54.914,64.559L54.914,84.213C54.914,84.832 54.774,85.44 54.5,86.035C54.468,86.113 54.432,86.191 54.392,86.267C54.146,86.74 53.804,87.205 53.37,87.665C52.929,88.134 52.463,88.509 51.969,88.79C51.488,89.064 50.999,89.244 50.497,89.328ZM61.484,44.549C59.853,44.549 58.343,44.304 56.951,43.814C55.51,43.305 54.229,42.541 53.107,41.518C53.054,41.471 53.004,41.421 52.956,41.371C51.871,40.357 51.053,39.187 50.499,37.863C49.928,36.498 49.645,35.003 49.645,33.383C49.645,31.767 49.928,30.264 50.5,28.882C51.085,27.466 51.953,26.228 53.107,25.174L53.167,25.121C54.265,24.121 55.522,23.367 56.939,22.857C58.346,22.35 59.861,22.098 61.484,22.098C63.146,22.098 64.678,22.347 66.083,22.845C67.536,23.361 68.824,24.137 69.947,25.174L69.948,25.173C71.102,26.227 71.97,27.465 72.556,28.881C73.127,30.263 73.41,31.766 73.41,33.382C73.41,35.003 73.128,36.498 72.556,37.863C71.976,39.249 71.107,40.467 69.943,41.513L69.948,41.518C68.828,42.539 67.536,43.304 66.071,43.814C64.66,44.305 63.132,44.549 61.484,44.549ZM58.929,38.207C59.66,38.465 60.512,38.594 61.485,38.594C62.499,38.594 63.377,38.466 64.118,38.207C64.806,37.968 65.416,37.606 65.947,37.122L65.952,37.127L65.971,37.11C66.46,36.672 66.825,36.163 67.068,35.584C67.328,34.962 67.457,34.228 67.457,33.383C67.457,32.518 67.328,31.769 67.067,31.138C66.827,30.556 66.454,30.033 65.948,29.571L65.95,29.57L65.925,29.548C65.403,29.063 64.797,28.697 64.108,28.453C63.36,28.187 62.486,28.055 61.487,28.055C60.508,28.055 59.659,28.184 58.943,28.442C58.294,28.675 57.708,29.029 57.186,29.502C57.162,29.526 57.138,29.549 57.112,29.572C56.606,30.034 56.234,30.557 55.993,31.139C55.733,31.769 55.603,32.519 55.603,33.383C55.603,34.227 55.732,34.962 55.992,35.583C56.215,36.116 56.541,36.589 56.972,37.002C57.019,37.04 57.066,37.08 57.111,37.121C57.64,37.604 58.246,37.966 58.929,38.207Z" style="fill:rgb(0,86,255);fill-rule:nonzero;"/>
    </g>
</svg>
