<?xml version="1.0" encoding="UTF-8"?>
<!-- Generated by Pixelmator Pro 3.5.3 -->
<svg width="416" height="511" viewBox="0 0 416 511" xmlns="http://www.w3.org/2000/svg">
    <path id="Path" fill="#027aff" stroke="none" d="M 208 -0.720001 C 265.420013 -0.720001 317.440002 22.559998 355.079987 60.200012 C 392.709991 97.830017 416 149.839996 416 207.279999 C 416 264.720001 392.720001 316.720001 355.079987 354.359985 C 352.279999 357.149994 349.399994 359.859985 346.450012 362.51001 C 347.390015 354.470001 347.859985 346.230011 347.859985 337.790009 C 347.859985 332.279999 346.950012 326.950012 345.269989 321.980011 C 371.230011 290.929993 386.880005 250.929993 386.880005 207.279999 C 386.880005 157.880005 366.839996 113.160004 334.48999 80.799988 C 302.119995 48.429993 257.390015 28.410004 208 28.410004 C 158.589996 28.410004 113.849998 48.429993 81.489998 80.769989 C 49.150002 113.130005 29.129999 157.869995 29.129999 207.279999 C 29.129999 250.920013 44.77 290.929993 70.730003 321.980011 C 69.010384 327.073517 68.135498 332.414032 68.139999 337.790009 C 68.139999 346.230011 68.610001 354.470001 69.550003 362.51001 C 66.599998 359.880005 63.720001 357.149994 60.919998 354.359985 C 23.280001 316.720001 0 264.700012 0 207.279999 C 0 149.880005 23.290001 97.899994 60.919998 60.26001 C 98.620003 22.579987 150.600006 -0.720001 208 -0.720001 Z M 312 337.790009 C 312 330.01001 305.679993 323.690002 297.899994 323.690002 C 290.109985 323.690002 283.790009 330.01001 283.790009 337.790009 C 283.790009 365.579987 277.140015 388.51001 263.640015 403.829987 C 251.410004 417.690002 232.949997 425.670013 208 425.670013 C 183.050003 425.670013 164.570007 417.700012 152.360001 403.839996 C 138.860001 388.519989 132.199997 365.589996 132.199997 337.790009 C 132.199997 330.01001 125.900002 323.690002 118.099998 323.690002 C 110.309998 323.690002 104 330.01001 104 337.790009 C 104 372.420013 112.970001 401.779999 131.199997 422.459991 C 144.630005 437.679993 162.679993 447.959991 185.460007 451.980011 L 185.460007 469.230011 L 150.910004 469.230011 C 150.320007 469.230011 149.729996 469.279999 149.149994 469.369995 L 149.050003 469.369995 C 143.820007 469.369995 139.470001 473.730011 139.470001 478.959991 L 139.470001 501.410004 C 139.470001 506.639984 143.789993 511 149.050003 511 L 266.959991 511 C 272.220001 511 276.540009 506.670013 276.540009 501.410004 L 276.540009 478.959991 C 276.540009 473.700012 272.179993 469.369995 266.959991 469.369995 L 266.850006 469.369995 C 266.269989 469.279999 265.690002 469.230011 265.089996 469.230011 L 230.550003 469.230011 L 230.550003 451.980011 C 253.309998 447.959991 271.369995 437.679993 284.790009 422.450012 C 303.029999 401.769989 312 372.410004 312 337.790009 Z M 208 175.820007 C 236.770004 175.820007 260.309998 199.360016 260.309998 228.119995 L 260.309998 229.480011 L 232.169998 229.480011 L 232.169998 258.089996 L 260.309998 258.100006 L 260.309998 279.75 L 232.169998 279.75 L 232.169998 308.380005 L 260.309998 308.380005 L 260.309998 348.23999 C 260.309998 377 236.770004 400.540009 208 400.540009 C 179.240005 400.540009 155.710007 377 155.710007 348.23999 L 155.710007 308.380005 L 183.839996 308.380005 L 183.839996 279.75 L 155.710007 279.75 L 155.710007 258.089996 L 183.839996 258.100006 L 183.839996 229.480011 L 155.710007 229.480011 L 155.710007 228.119995 C 155.710007 199.360016 179.240005 175.820007 208 175.820007 Z M 208 72.890015 C 245.050003 72.890015 278.649994 87.950012 302.98999 112.290009 C 327.339996 136.570007 342.390015 170.170013 342.390015 207.279999 C 342.390015 238.640015 331.630005 267.51001 313.609985 290.389984 C 308.546509 288.691589 303.240753 287.826996 297.899994 287.829987 L 296.170013 287.859985 L 296.170013 264.779999 C 306.959991 248.25 313.25 228.490021 313.25 207.279999 C 313.25 178.209991 301.459991 151.880005 282.429993 132.820007 C 263.429993 113.790009 237.110001 102.029999 208 102.029999 C 178.910004 102.029999 152.570007 113.809998 133.539993 132.820007 C 114.529999 151.850006 102.75 178.190002 102.75 207.279999 C 102.75 228.51001 109.040001 248.279999 119.839996 264.820007 L 119.839996 287.859985 L 118.099998 287.829987 C 112.620003 287.829987 107.339996 288.720001 102.389999 290.359985 C 84.349998 267.48999 73.610001 238.630005 73.610001 207.279999 C 73.610001 170.220001 88.660004 136.630005 112.970001 112.309998 C 137.350006 87.940002 170.940002 72.890015 208 72.890015 Z"/>
</svg>
