<?xml version="1.0" encoding="UTF-8" standalone="no"?>
<!DOCTYPE svg PUBLIC "-//W3C//DTD SVG 1.1//EN" "http://www.w3.org/Graphics/SVG/1.1/DTD/svg11.dtd">
<svg width="100%" height="100%" viewBox="0 0 123 102" version="1.1" xmlns="http://www.w3.org/2000/svg" xmlns:xlink="http://www.w3.org/1999/xlink" xml:space="preserve" xmlns:serif="http://www.serif.com/" style="fill-rule:evenodd;clip-rule:evenodd;stroke-linejoin:round;stroke-miterlimit:2;">
    <g>
        <path d="M28.94,12.53L28.94,4.77C28.94,3.46 29.48,2.26 30.34,1.4C31.2,0.54 32.39,0 33.7,0L89.17,0C90.48,0 91.68,0.54 92.54,1.4C93.4,2.26 93.94,3.46 93.94,4.77L93.94,12.54L119.17,12.54C120.19,12.54 121.12,12.96 121.79,13.63C122.46,14.3 122.88,15.23 122.88,16.25L122.88,97.59C122.88,98.61 122.46,99.54 121.79,100.21C121.12,100.88 120.19,101.3 119.17,101.3L3.7,101.3C2.68,101.3 1.75,100.88 1.08,100.21C0.42,99.52 0,98.6 0,97.58L0,16.24C0,15.22 0.42,14.29 1.09,13.62C1.76,12.95 2.69,12.53 3.71,12.53L28.94,12.53ZM61.9,32.86C74.88,32.86 85.4,43.38 85.4,56.36C85.4,58.18 85.19,59.95 84.8,61.65C83.85,66.33 81.54,70.51 78.29,73.76C73.98,78.07 68.02,80.74 61.44,80.74C54.86,80.74 48.9,78.07 44.59,73.76C40.28,69.45 37.61,63.49 37.61,56.91C37.61,50.33 40.28,44.37 44.59,40.06C46.96,37.69 49.83,35.82 53.02,34.61C55.76,33.48 58.76,32.86 61.9,32.86ZM31.54,4.77L31.54,12.54L91.34,12.54L91.34,4.77C91.34,4.18 91.1,3.63 90.7,3.24C90.31,2.85 89.77,2.6 89.17,2.6L33.7,2.6C33.11,2.6 32.56,2.84 32.17,3.24C31.78,3.63 31.54,4.17 31.54,4.77ZM2.6,81.61L38.9,81.61C38.52,81.27 38.15,80.91 37.79,80.55C31.75,74.5 28,66.14 28,56.91C28,47.68 31.74,39.33 37.79,33.28L2.6,33.28L2.6,81.61ZM42.14,84.21L2.6,84.21L2.6,97.58C2.6,97.88 2.72,98.16 2.92,98.35C3.12,98.55 3.39,98.67 3.7,98.67L119.18,98.67C119.48,98.67 119.76,98.55 119.95,98.35C120.15,98.15 120.27,97.88 120.27,97.58L120.27,84.21L80.74,84.21C75.29,88.07 68.63,90.34 61.44,90.34C54.25,90.34 47.59,88.07 42.14,84.21ZM43.26,81.81C43.3,81.84 43.34,81.86 43.38,81.89C48.46,85.57 54.7,87.73 61.44,87.73C68.18,87.73 74.43,85.56 79.5,81.89C79.54,81.86 79.58,81.83 79.62,81.81C80.91,80.87 82.12,79.83 83.24,78.71C88.82,73.13 92.27,65.42 92.27,56.91C92.27,48.4 88.82,40.69 83.24,35.11C82.51,34.38 81.74,33.68 80.93,33.02C80.9,33 80.87,32.97 80.84,32.95C75.54,28.65 68.79,26.08 61.44,26.08C54.09,26.08 47.34,28.65 42.04,32.95C42.01,32.98 41.98,33 41.95,33.02C41.15,33.68 40.37,34.37 39.64,35.11C34.06,40.69 30.61,48.4 30.61,56.91C30.61,65.42 34.06,73.13 39.64,78.71C40.76,79.83 41.97,80.87 43.26,81.81ZM83.98,81.61L120.28,81.61L120.28,33.27L85.09,33.27C91.14,39.32 94.88,47.68 94.88,56.9C94.88,66.13 91.14,74.49 85.08,80.54C84.72,80.91 84.35,81.26 83.98,81.61ZM2.6,30.67L40.71,30.67C46.41,26.16 53.61,23.47 61.44,23.47C69.27,23.47 76.47,26.16 82.17,30.67L120.28,30.67L120.28,16.24C120.28,15.94 120.16,15.66 119.96,15.47C119.76,15.27 119.49,15.15 119.19,15.15L3.7,15.15C3.4,15.15 3.12,15.27 2.92,15.47C2.72,15.67 2.6,15.94 2.6,16.24L2.6,30.67Z" style="fill:rgb(0,88,255);fill-rule:nonzero;"/>
    </g>
</svg>
